<mxfile host="app.diagrams.net" modified="2022-10-13T13:34:48.986Z" agent="5.0 (Windows NT 10.0; Win64; x64) AppleWebKit/537.36 (KHTML, like Gecko) Chrome/106.0.0.0 Safari/537.36" etag="Qkw6DsPFAYgpAfOQq4iA" version="20.4.0" type="github">
  <diagram id="uVehlbM26gOt4IaI_sKt" name="Page-1">
    <mxGraphModel dx="1038" dy="547" grid="1" gridSize="10" guides="1" tooltips="1" connect="1" arrows="1" fold="1" page="1" pageScale="1" pageWidth="850" pageHeight="1100" math="0" shadow="0">
      <root>
        <mxCell id="0" />
        <mxCell id="1" parent="0" />
        <mxCell id="O7-cnBJ7EZDTtpkwM0OF-1" value="PLAYER" style="html=1;" vertex="1" parent="1">
          <mxGeometry x="625" y="640" width="110" height="50" as="geometry" />
        </mxCell>
        <mxCell id="O7-cnBJ7EZDTtpkwM0OF-2" value="DUBLIN" style="shape=ext;double=1;rounded=0;whiteSpace=wrap;html=1;" vertex="1" parent="1">
          <mxGeometry x="180" y="240" width="120" height="80" as="geometry" />
        </mxCell>
        <mxCell id="O7-cnBJ7EZDTtpkwM0OF-4" value="CORK" style="shape=ext;double=1;rounded=0;whiteSpace=wrap;html=1;" vertex="1" parent="1">
          <mxGeometry x="620" y="240" width="120" height="80" as="geometry" />
        </mxCell>
        <mxCell id="O7-cnBJ7EZDTtpkwM0OF-7" value="" style="ellipse;shape=doubleEllipse;whiteSpace=wrap;html=1;" vertex="1" parent="1">
          <mxGeometry x="80" y="110" width="100" height="60" as="geometry" />
        </mxCell>
        <mxCell id="O7-cnBJ7EZDTtpkwM0OF-8" value="" style="ellipse;shape=doubleEllipse;whiteSpace=wrap;html=1;" vertex="1" parent="1">
          <mxGeometry x="290" y="20" width="100" height="60" as="geometry" />
        </mxCell>
        <mxCell id="O7-cnBJ7EZDTtpkwM0OF-9" value="" style="ellipse;shape=doubleEllipse;whiteSpace=wrap;html=1;" vertex="1" parent="1">
          <mxGeometry x="290" y="110" width="100" height="60" as="geometry" />
        </mxCell>
        <mxCell id="O7-cnBJ7EZDTtpkwM0OF-10" value="" style="ellipse;shape=doubleEllipse;whiteSpace=wrap;html=1;" vertex="1" parent="1">
          <mxGeometry x="80" y="20" width="100" height="60" as="geometry" />
        </mxCell>
        <mxCell id="O7-cnBJ7EZDTtpkwM0OF-11" value="" style="ellipse;shape=doubleEllipse;whiteSpace=wrap;html=1;" vertex="1" parent="1">
          <mxGeometry x="550" y="130" width="100" height="60" as="geometry" />
        </mxCell>
        <mxCell id="O7-cnBJ7EZDTtpkwM0OF-12" value="" style="ellipse;shape=doubleEllipse;whiteSpace=wrap;html=1;" vertex="1" parent="1">
          <mxGeometry x="750" y="130" width="100" height="60" as="geometry" />
        </mxCell>
        <mxCell id="O7-cnBJ7EZDTtpkwM0OF-13" value="" style="ellipse;shape=doubleEllipse;whiteSpace=wrap;html=1;" vertex="1" parent="1">
          <mxGeometry x="550" y="50" width="100" height="60" as="geometry" />
        </mxCell>
        <mxCell id="O7-cnBJ7EZDTtpkwM0OF-14" value="" style="ellipse;shape=doubleEllipse;whiteSpace=wrap;html=1;" vertex="1" parent="1">
          <mxGeometry x="740" y="50" width="100" height="60" as="geometry" />
        </mxCell>
        <mxCell id="O7-cnBJ7EZDTtpkwM0OF-16" value="SET_PLAYERS" style="ellipse;shape=doubleEllipse;whiteSpace=wrap;html=1;" vertex="1" parent="1">
          <mxGeometry x="280" y="510" width="100" height="60" as="geometry" />
        </mxCell>
        <mxCell id="O7-cnBJ7EZDTtpkwM0OF-21" value="INJURY_REC" style="ellipse;shape=doubleEllipse;whiteSpace=wrap;html=1;" vertex="1" parent="1">
          <mxGeometry x="490" y="730" width="100" height="60" as="geometry" />
        </mxCell>
        <mxCell id="O7-cnBJ7EZDTtpkwM0OF-24" value="GAME" style="rounded=0;whiteSpace=wrap;html=1;" vertex="1" parent="1">
          <mxGeometry x="370" y="910" width="120" height="60" as="geometry" />
        </mxCell>
        <mxCell id="O7-cnBJ7EZDTtpkwM0OF-25" value="SCORE" style="ellipse;whiteSpace=wrap;html=1;" vertex="1" parent="1">
          <mxGeometry x="230" y="1050" width="120" height="80" as="geometry" />
        </mxCell>
        <mxCell id="O7-cnBJ7EZDTtpkwM0OF-26" value="GUEST_TIME" style="ellipse;whiteSpace=wrap;html=1;" vertex="1" parent="1">
          <mxGeometry x="505" y="1060" width="120" height="80" as="geometry" />
        </mxCell>
        <mxCell id="O7-cnBJ7EZDTtpkwM0OF-27" value="HOST_TEAM" style="ellipse;whiteSpace=wrap;html=1;" vertex="1" parent="1">
          <mxGeometry x="610" y="960" width="120" height="80" as="geometry" />
        </mxCell>
        <mxCell id="O7-cnBJ7EZDTtpkwM0OF-28" value="DATE" style="ellipse;whiteSpace=wrap;html=1;" vertex="1" parent="1">
          <mxGeometry x="160" y="930" width="120" height="80" as="geometry" />
        </mxCell>
        <mxCell id="O7-cnBJ7EZDTtpkwM0OF-31" value="TEAM" style="rounded=0;whiteSpace=wrap;html=1;" vertex="1" parent="1">
          <mxGeometry x="150" y="630" width="120" height="60" as="geometry" />
        </mxCell>
        <mxCell id="O7-cnBJ7EZDTtpkwM0OF-32" value="COACH" style="ellipse;whiteSpace=wrap;html=1;" vertex="1" parent="1">
          <mxGeometry x="30" y="730" width="120" height="80" as="geometry" />
        </mxCell>
        <mxCell id="O7-cnBJ7EZDTtpkwM0OF-33" value="CAPTAIN" style="ellipse;whiteSpace=wrap;html=1;" vertex="1" parent="1">
          <mxGeometry x="260" y="740" width="120" height="80" as="geometry" />
        </mxCell>
        <mxCell id="O7-cnBJ7EZDTtpkwM0OF-34" value="CITY" style="ellipse;whiteSpace=wrap;html=1;" vertex="1" parent="1">
          <mxGeometry x="20" y="540" width="120" height="80" as="geometry" />
        </mxCell>
        <mxCell id="O7-cnBJ7EZDTtpkwM0OF-35" value="NAME" style="ellipse;whiteSpace=wrap;html=1;" vertex="1" parent="1">
          <mxGeometry x="140" y="480" width="120" height="80" as="geometry" />
        </mxCell>
        <mxCell id="O7-cnBJ7EZDTtpkwM0OF-36" value="POSITION" style="ellipse;whiteSpace=wrap;html=1;" vertex="1" parent="1">
          <mxGeometry x="780" y="530" width="120" height="80" as="geometry" />
        </mxCell>
        <mxCell id="O7-cnBJ7EZDTtpkwM0OF-37" value="SKILL_LEVEL" style="ellipse;whiteSpace=wrap;html=1;" vertex="1" parent="1">
          <mxGeometry x="750" y="710" width="120" height="80" as="geometry" />
        </mxCell>
        <mxCell id="O7-cnBJ7EZDTtpkwM0OF-38" value="NAME" style="ellipse;whiteSpace=wrap;html=1;" vertex="1" parent="1">
          <mxGeometry x="510" y="510" width="120" height="80" as="geometry" />
        </mxCell>
        <mxCell id="O7-cnBJ7EZDTtpkwM0OF-39" value="F_NAME" style="ellipse;whiteSpace=wrap;html=1;" vertex="1" parent="1">
          <mxGeometry x="440" y="420" width="120" height="80" as="geometry" />
        </mxCell>
        <mxCell id="O7-cnBJ7EZDTtpkwM0OF-40" value="L_NAME" style="ellipse;whiteSpace=wrap;html=1;" vertex="1" parent="1">
          <mxGeometry x="590" y="420" width="120" height="80" as="geometry" />
        </mxCell>
        <mxCell id="O7-cnBJ7EZDTtpkwM0OF-41" value="TEAM_ID" style="ellipse;whiteSpace=wrap;html=1;align=center;fontStyle=4;" vertex="1" parent="1">
          <mxGeometry x="10" y="640" width="100" height="40" as="geometry" />
        </mxCell>
        <mxCell id="O7-cnBJ7EZDTtpkwM0OF-42" value="PLAYER_ID" style="ellipse;whiteSpace=wrap;html=1;align=center;fontStyle=4;" vertex="1" parent="1">
          <mxGeometry x="630" y="570" width="100" height="40" as="geometry" />
        </mxCell>
        <mxCell id="O7-cnBJ7EZDTtpkwM0OF-43" value="GAME_ID" style="ellipse;whiteSpace=wrap;html=1;align=center;fontStyle=4;" vertex="1" parent="1">
          <mxGeometry x="380" y="1040" width="100" height="40" as="geometry" />
        </mxCell>
        <mxCell id="O7-cnBJ7EZDTtpkwM0OF-44" value="GUEST_SCORE" style="ellipse;whiteSpace=wrap;html=1;align=center;" vertex="1" parent="1">
          <mxGeometry x="170" y="1170" width="100" height="40" as="geometry" />
        </mxCell>
        <mxCell id="O7-cnBJ7EZDTtpkwM0OF-45" value="HOST_SCORE" style="ellipse;whiteSpace=wrap;html=1;align=center;" vertex="1" parent="1">
          <mxGeometry x="290" y="1170" width="100" height="40" as="geometry" />
        </mxCell>
        <mxCell id="O7-cnBJ7EZDTtpkwM0OF-47" value="" style="endArrow=classic;startArrow=classic;html=1;rounded=0;exitX=1;exitY=0;exitDx=0;exitDy=0;" edge="1" parent="1" source="O7-cnBJ7EZDTtpkwM0OF-25" target="O7-cnBJ7EZDTtpkwM0OF-24">
          <mxGeometry width="50" height="50" relative="1" as="geometry">
            <mxPoint x="360" y="1000" as="sourcePoint" />
            <mxPoint x="410" y="950" as="targetPoint" />
          </mxGeometry>
        </mxCell>
        <mxCell id="O7-cnBJ7EZDTtpkwM0OF-48" value="" style="endArrow=classic;startArrow=classic;html=1;rounded=0;exitX=1.003;exitY=0.423;exitDx=0;exitDy=0;exitPerimeter=0;entryX=0;entryY=0.5;entryDx=0;entryDy=0;" edge="1" parent="1" source="O7-cnBJ7EZDTtpkwM0OF-28" target="O7-cnBJ7EZDTtpkwM0OF-24">
          <mxGeometry width="50" height="50" relative="1" as="geometry">
            <mxPoint x="360" y="1000" as="sourcePoint" />
            <mxPoint x="410" y="950" as="targetPoint" />
          </mxGeometry>
        </mxCell>
        <mxCell id="O7-cnBJ7EZDTtpkwM0OF-49" value="" style="endArrow=classic;startArrow=classic;html=1;rounded=0;exitX=0.5;exitY=0;exitDx=0;exitDy=0;entryX=0.233;entryY=0.913;entryDx=0;entryDy=0;entryPerimeter=0;" edge="1" parent="1" source="O7-cnBJ7EZDTtpkwM0OF-44" target="O7-cnBJ7EZDTtpkwM0OF-25">
          <mxGeometry width="50" height="50" relative="1" as="geometry">
            <mxPoint x="360" y="1000" as="sourcePoint" />
            <mxPoint x="410" y="950" as="targetPoint" />
          </mxGeometry>
        </mxCell>
        <mxCell id="O7-cnBJ7EZDTtpkwM0OF-50" value="" style="endArrow=classic;startArrow=classic;html=1;rounded=0;exitX=0.787;exitY=0.903;exitDx=0;exitDy=0;exitPerimeter=0;" edge="1" parent="1" source="O7-cnBJ7EZDTtpkwM0OF-25" target="O7-cnBJ7EZDTtpkwM0OF-45">
          <mxGeometry width="50" height="50" relative="1" as="geometry">
            <mxPoint x="360" y="1000" as="sourcePoint" />
            <mxPoint x="410" y="950" as="targetPoint" />
          </mxGeometry>
        </mxCell>
        <mxCell id="O7-cnBJ7EZDTtpkwM0OF-51" value="" style="endArrow=classic;startArrow=classic;html=1;rounded=0;entryX=0.02;entryY=0.318;entryDx=0;entryDy=0;entryPerimeter=0;" edge="1" parent="1" source="O7-cnBJ7EZDTtpkwM0OF-24" target="O7-cnBJ7EZDTtpkwM0OF-27">
          <mxGeometry width="50" height="50" relative="1" as="geometry">
            <mxPoint x="360" y="1000" as="sourcePoint" />
            <mxPoint x="410" y="950" as="targetPoint" />
          </mxGeometry>
        </mxCell>
        <mxCell id="O7-cnBJ7EZDTtpkwM0OF-52" value="" style="endArrow=classic;startArrow=classic;html=1;rounded=0;exitX=0.75;exitY=1;exitDx=0;exitDy=0;" edge="1" parent="1" source="O7-cnBJ7EZDTtpkwM0OF-24" target="O7-cnBJ7EZDTtpkwM0OF-26">
          <mxGeometry width="50" height="50" relative="1" as="geometry">
            <mxPoint x="360" y="1000" as="sourcePoint" />
            <mxPoint x="560" y="1050" as="targetPoint" />
          </mxGeometry>
        </mxCell>
      </root>
    </mxGraphModel>
  </diagram>
</mxfile>
